<svg xmlns="http://www.w3.org/2000/svg" fill="none" viewBox="0 0 24 24" stroke-width="1.5" stroke="currentColor">
  <path stroke-linecap="round" stroke-linejoin="round" d="M15.75 5.25a3 3 0 0 1 3 3m-3-3a3 3 0 0 0-3 3m3-3h.008v.008H15.75V5.25Zm-3 0h.008v.008H12.75V5.25Zm0 0h-7.5a3 3 0 0 0-3 3v9a3 3 0 0 0 3 3h7.5a3 3 0 0 0 3-3v-9a3 3 0 0 0-3-3Z" />
  <path stroke-linecap="round" stroke-linejoin="round" d="M8.25 15.75h7.5" />
  <path stroke-linecap="round" stroke-linejoin="round" d="M8.25 12h7.5" />
  <path stroke-linecap="round" stroke-linejoin="round" d="M8.25 8.25h7.5" />
</svg>
